<svg width="17" height="13" viewBox="0 0 17 13" fill="none" xmlns="http://www.w3.org/2000/svg">
<rect x="2.07617" y="5.92505" width="14.6247" height="1.64822" rx="0.824111" fill="white"/>
<path d="M2.46802 6.7465L7.14489 11.4236C7.27366 11.552 7.34451 11.7238 7.34451 11.907C7.34451 12.0902 7.27366 12.2619 7.14489 12.3906L6.73507 12.8002C6.6065 12.9291 6.43463 13 6.25147 13C6.06831 13 5.89665 12.9291 5.76797 12.8002L0.19942 7.23173C0.0702359 7.10265 -0.000505477 6.93016 2.72307e-06 6.7468C-0.000505477 6.56263 0.0701343 6.39035 0.19942 6.26117L5.76278 0.698108C5.89146 0.569228 6.06313 0.498283 6.24639 0.498283C6.42954 0.498283 6.60121 0.569228 6.72999 0.698108L7.1397 1.10772C7.4063 1.37432 7.4063 1.80832 7.1397 2.07482L2.46802 6.7465Z" fill="white"/>
</svg>
