<svg xmlns="http://www.w3.org/2000/svg" width="20" height="18" xmlns:v="https://vecta.io/nano"><path d="M2.23 0h15.08a2.24 2.24 0 0 1 2.23 2.222V12.5a2.23 2.23 0 0 1-2.23 2.209h-7.27l-5.136 3.224c-.08.05-.178.076-.272.076-.085 0-.17-.02-.25-.064a.51.51 0 0 1-.263-.446V14.7h-1.9A2.23 2.23 0 0 1 0 12.49V2.222A2.24 2.24 0 0 1 2.23 0zM1.02 12.5a1.21 1.21 0 0 0 1.211 1.19h2.405c.28 0 .506.23.506.5v2.38l4.482-2.812c.08-.05.178-.076.272-.076h7.418a1.21 1.21 0 0 0 1.211-1.19V2.222c0-.658-.552-1.202-1.21-1.202H2.23c-.658 0-1.21.544-1.21 1.202V12.5z" fill="#212121"/></svg>