<svg width="24" height="23" viewBox="0 0 24 23" fill="none" xmlns="http://www.w3.org/2000/svg">
<circle cx="12.096" cy="11.4591" r="10.7635" fill="#E77272" stroke="white"/>
<path d="M13.1539 11.459L16.7445 7.86825C16.8432 7.76941 16.8977 7.63754 16.8979 7.49692C16.8979 7.35622 16.8434 7.2242 16.7445 7.12551L16.4298 6.81094C16.3309 6.71186 16.199 6.65759 16.0582 6.65759C15.9177 6.65759 15.7858 6.71186 15.6869 6.81094L12.0963 10.4015L8.50556 6.81094C8.40679 6.71186 8.27484 6.65759 8.13415 6.65759C7.99361 6.65759 7.86166 6.71186 7.76289 6.81094L7.44809 7.12551C7.24322 7.33038 7.24322 7.66361 7.44809 7.86825L11.0388 11.459L7.44809 15.0496C7.34924 15.1486 7.29482 15.2805 7.29482 15.4211C7.29482 15.5617 7.34924 15.6936 7.44809 15.7925L7.76282 16.1071C7.86158 16.2061 7.99361 16.2604 8.13407 16.2604C8.27477 16.2604 8.40672 16.2061 8.50548 16.1071L12.0962 12.5165L15.6868 16.1071C15.7858 16.2061 15.9176 16.2604 16.0582 16.2604H16.0583C16.1989 16.2604 16.3308 16.2061 16.4297 16.1071L16.7444 15.7925C16.8432 15.6937 16.8976 15.5617 16.8976 15.4211C16.8976 15.2805 16.8432 15.1486 16.7444 15.0497L13.1539 11.459Z" fill="white"/>
</svg>
