<svg width="12" height="12" viewBox="0 0 12 12" fill="none" xmlns="http://www.w3.org/2000/svg">
<path d="M7.40041 5.96764L11.4281 1.93981C11.5389 1.82893 11.6 1.68101 11.6002 1.52328C11.6002 1.36546 11.539 1.21736 11.4281 1.10666L11.0751 0.753795C10.9642 0.642656 10.8162 0.581787 10.6583 0.581787C10.5007 0.581787 10.3528 0.642656 10.2418 0.753795L6.21413 4.78136L2.18631 0.753795C2.07552 0.642656 1.92751 0.581787 1.76969 0.581787C1.61204 0.581787 1.46403 0.642656 1.35324 0.753795L1.00012 1.10666C0.770306 1.33647 0.770306 1.71026 1.00012 1.93981L5.02786 5.96764L1.00012 9.99529C0.88924 10.1063 0.828197 10.2543 0.828197 10.412C0.828197 10.5697 0.88924 10.7177 1.00012 10.8286L1.35315 11.1815C1.46394 11.2925 1.61204 11.3535 1.7696 11.3535C1.92742 11.3535 2.07543 11.2925 2.18622 11.1815L6.21405 7.15383L10.2417 11.1815C10.3527 11.2925 10.5006 11.3535 10.6582 11.3535H10.6584C10.8161 11.3535 10.9641 11.2925 11.075 11.1815L11.428 10.8286C11.5388 10.7177 11.5999 10.5697 11.5999 10.412C11.5999 10.2543 11.5388 10.1063 11.428 9.99538L7.40041 5.96764Z" fill="black"/>
</svg>
