<svg xmlns="http://www.w3.org/2000/svg" width="22" height="24" viewBox="0 0 22 24">
    <path fill="#212121" d="M19.933 4.97v15.56c0 1.855-1.54 3.383-3.41 3.383H5.417c-1.874 0-3.414-1.528-3.414-3.382V4.97H.789c-1.052 0-1.052-1.586 0-1.586h6.23v-1.52C7.019.873 7.804 0 8.827 0h4.286c1.02 0 1.808.876 1.808 1.865v1.52h6.226c1.052 0 1.052 1.586 0 1.586h-1.214zM8.618 3.386h4.7v-1.52c0-.116-.07-.28-.205-.28H8.827c-.14 0-.21.164-.21.28v1.52zm5.833 14.513c0 1.04-1.598 1.04-1.598 0V9.265c0-1.04 1.598-1.04 1.598 0v8.633zm-5.368 0c0 1.04-1.598 1.04-1.598 0V9.265c0-1.04 1.598-1.043 1.598 0v8.633zm9.251-12.927H3.605v15.56c0 .989.81 1.796 1.812 1.796h11.106c.997 0 1.811-.807 1.811-1.796V4.97z"/>
</svg>
