<svg width="14" height="12" viewBox="0 0 14 12" fill="none" xmlns="http://www.w3.org/2000/svg">
<path d="M13.6271 4.165C13.7601 4.0992 13.8462 3.9606 13.8476 3.8066C13.8497 3.6533 13.7664 3.5126 13.6348 3.4447L7.09681 0.0441C6.98551 -0.0147 6.85461 -0.0147 6.74401 0.0441L0.206013 3.6428C0.0751134 3.7142 -0.00468658 3.8577 0.000213424 4.011C0.00581342 4.1643 0.0947134 4.3008 0.229813 4.3631L2.07641 5.2094V7.5068C2.07641 8.9915 4.43331 9.6558 6.76641 9.6572C10.181 9.6572 11.3913 8.4987 11.3913 7.5068V5.2668L12.2579 4.8377V8.5659C11.77 8.7381 11.441 9.2141 11.441 9.7503V10.7303C11.441 10.8367 11.4809 10.9389 11.553 11.0138C11.6251 11.0894 11.7231 11.1314 11.826 11.1307H13.4626C13.6747 11.1307 13.8476 10.9515 13.8476 10.731V9.7531C13.8455 9.2176 13.5172 8.7423 13.03 8.5694V4.4604L13.6271 4.1643V4.165ZM13.0776 10.3341H12.2131V9.7531C12.2131 9.5046 12.407 9.3037 12.6457 9.3037C12.8837 9.3037 13.0776 9.5046 13.0776 9.7531V10.3341ZM6.92391 0.8526L12.5855 3.7947L12.5365 3.8185L11.1267 4.5241L10.8348 4.6683L6.92321 6.7564L2.63151 4.5885H2.62101L1.27141 3.9711L6.92391 0.8526ZM10.6164 7.5068C10.6164 8.2635 8.92381 8.8578 6.76081 8.8578C4.59921 8.8578 2.83941 8.2509 2.83941 7.5068V5.5867L6.75591 7.5628C6.78251 7.5761 6.81051 7.5859 6.83991 7.5929H6.85951C6.88051 7.5985 6.90151 7.6006 6.92391 7.6013H7.01141C7.04081 7.5936 7.06951 7.5824 7.09611 7.5677L10.6255 5.6665L10.6164 7.5068Z" fill="#212121"/>
</svg>
