<svg width="17" height="9" viewBox="0 0 17 9" fill="none" xmlns="http://www.w3.org/2000/svg">
<circle cx="1.76768" cy="5.14305" r="1.21007" fill="#797979"/>
<path d="M9.19194 0.805618C8.18548 0.805618 7.36667 1.67378 7.36667 2.74089C7.36667 3.808 8.18548 4.67617 9.19194 4.67617C10.1984 4.67617 11.0172 3.808 11.0172 2.74089C11.0172 1.67378 10.1984 0.805618 9.19194 0.805618Z" fill="#797979"/>
<path d="M13.3418 1.08258C13.3376 1.08258 13.3335 1.0826 13.3293 1.08262C12.907 1.08612 12.5124 1.26446 12.2184 1.58483C11.9296 1.89953 11.7726 2.31471 11.7762 2.75385C11.7798 3.19299 11.9437 3.60551 12.2377 3.91543C12.534 4.22776 12.9264 4.39928 13.3441 4.39928C13.3483 4.39928 13.3525 4.39926 13.3567 4.39924C13.7791 4.39575 14.1737 4.21739 14.4676 3.89703C14.7565 3.58233 14.9135 3.16715 14.9099 2.72799C14.9024 1.81795 14.2001 1.08258 13.3418 1.08258Z" fill="#797979"/>
<path d="M13.4188 4.71609H13.2672C12.5613 4.71609 11.9172 4.98445 11.4309 5.4243C11.5526 5.51766 11.6684 5.61942 11.7781 5.72918C12.102 6.05301 12.3563 6.43035 12.534 6.85067C12.6942 7.22918 12.7856 7.62801 12.8069 8.03875H16.1582V7.45535C16.1582 5.945 14.9293 4.71609 13.4188 4.71609Z" fill="#797979"/>
<path d="M12.2197 8.03874C12.1645 7.14831 11.7131 6.36511 11.0395 5.86315C10.5494 5.49792 9.9416 5.28171 9.2832 5.28171H9.10078C7.47559 5.28173 6.1582 6.59909 6.1582 8.22429V8.57351H12.2256V8.22429C12.2256 8.16198 12.2236 8.10007 12.2197 8.03874Z" fill="#797979"/>
</svg>
