<svg width="16" height="16" viewBox="0 0 16 16" fill="none" xmlns="http://www.w3.org/2000/svg">
<path d="M6.28976 1.62075C6.21258 3.63502 5.9742 4.81408 4.80286 6.55567C4.60392 6.36187 4.33466 6.24011 4.03968 6.24011H1.10189C0.501637 6.24011 0 6.74089 0 7.34199V13.9533C0 14.5536 0.50078 15.0543 1.10189 15.0543H4.03968C4.34838 15.0543 4.6305 14.9206 4.83201 14.7105C4.97521 14.8245 5.10898 14.9291 5.26248 15.02C5.58747 15.2147 5.96562 15.3313 6.45011 15.3819C7.41823 15.4822 8.94286 15.4076 12.4869 15.4222C12.6138 15.4222 12.7399 15.3768 12.8376 15.2962C13.5382 14.7233 13.8829 14.1351 14.0424 13.5108C14.1033 13.4774 14.1582 13.4328 14.2028 13.3788C14.7344 12.7142 14.9488 11.9468 14.857 11.2556C14.8871 11.2316 14.9136 11.2042 14.9376 11.175C15.555 10.405 15.7497 9.4926 15.5293 8.72514C15.8903 8.25609 16.0464 7.70471 15.9881 7.19279C15.9161 6.5651 15.5139 6 14.9085 5.73504C14.8399 5.70502 14.7653 5.68959 14.6907 5.68959H10.1699C10.4118 3.88198 10.2265 2.22529 9.59027 1.10454C9.22927 0.469133 8.67875 0.0961202 8.12652 0.0138003C7.13611 -0.107965 6.38494 0.588326 6.28976 1.62075Z" fill="#2F4BAF"/>
</svg>
