<svg xmlns="http://www.w3.org/2000/svg" width="19" height="18" xmlns:v="https://vecta.io/nano"><path d="M7.335 1.9c-.09 2.35-.367 3.724-1.733 5.755-.232-.226-.546-.368-.9-.368H1.285A1.3 1.3 0 0 0 0 8.562v7.71a1.3 1.3 0 0 0 1.285 1.285H4.71a1.28 1.28 0 0 0 .924-.402l.502.36c.38.227.82.363 1.385.422 1.13.117 2.907.03 7.04.047.148 0 .294-.053.408-.147.818-.667 1.22-1.353 1.405-2.08.07-.04.135-.09.187-.154.62-.775.87-1.67.763-2.476.034-.028.066-.06.094-.094.72-.9.947-1.962.69-2.858.422-.547.604-1.2.535-1.787-.084-.732-.552-1.39-1.258-1.7-.08-.035-.167-.053-.254-.054H11.86c.282-2.107.067-4.04-.676-5.347C10.762.547 10.12.112 9.476.016 8.32-.126 7.445.686 7.335 1.9h0zm2.73.033c.585 1.03.86 3.057.442 5.233-.07.37.253.762.63.763h5.81c.24.134.4.34.422.616.03.26-.082.57-.34.883H14.13c-.34 0-.652.303-.652.642a.67.67 0 0 0 .652.642h2.776c.05.364-.04.82-.335 1.285h-2.44c-.34 0-.652.303-.652.642a.67.67 0 0 0 .652.642h1.92c.05.364-.04.82-.335 1.285H14.13c-.34 0-.652.303-.652.642a.67.67 0 0 0 .652.642h.868c-.132.283-.34.534-.71.857-3.9-.012-5.758.05-6.64-.04-.454-.047-.633-.114-.857-.248-.186-.11-.443-.325-.796-.61V9.292c2-2.687 2.517-4.566 2.623-7.34.2-1.106 1.16-.647 1.446-.027h0zm-8.78 6.64H4.71v7.71H1.285v-7.71z" fill="#212121"/></svg>