<?xml version="1.0" encoding="UTF-8"?>
<svg width="112px" height="26px" viewBox="0 0 112 26" version="1.1" xmlns="http://www.w3.org/2000/svg" xmlns:xlink="http://www.w3.org/1999/xlink">
    <title>9D12CC15-3F4F-423F-91A8-63DE5FB931F5</title>
    <defs>
        <polygon id="path-1" points="0 0.0133330579 10.6550093 0.0133330579 10.6550093 16.8360851 0 16.8360851"></polygon>
        <polygon id="path-3" points="0.023332785 0.013322314 17.402408 0.013322314 17.402408 17.3066099 0.023332785 17.3066099"></polygon>
        <polygon id="path-5" points="0.0849689777 0.013322314 16.6110395 0.013322314 16.6110395 25.7768298 0.0849689777 25.7768298"></polygon>
        <polygon id="path-7" points="0.0185314924 0.013322314 16.5778582 0.013322314 16.5778582 17.3066099 0.0185314924 17.3066099"></polygon>
        <polygon id="path-9" points="0.0946998825 0.0133330579 10.7496557 0.0133330579 10.7496557 16.8360851 0.0946998825 16.8360851"></polygon>
    </defs>
    <g id="Page-1" stroke="none" stroke-width="1" fill="none" fill-rule="evenodd">
        <g id="Seeker-rozeeblu-OTP-Code-Login" transform="translate(-11.000000, -16.000000)">
            <g id="logo" transform="translate(11.000000, 16.000000)">
                <g id="Group">
                    <g id="Action-Bar-Logo">
                        <g id="Group-22">
                            <g id="Group-3" transform="translate(0.000000, 0.094116)">
                                <mask id="mask-2" fill="white">
                                    <use xlink:href="#path-1"></use>
                                </mask>
                                <g id="Clip-2"></g>
                                <path d="M-1.0693302e-05,0.467258678 L3.76371081,0.467258678 L3.76371081,1.92970496 C4.45492585,1.20116777 5.06840059,0.70276281 5.60360035,0.43352314 C6.15002808,0.153647107 6.79675899,0.0133330579 7.54400693,0.0133330579 C8.53623843,0.0133330579 9.57316792,0.338870248 10.6550093,0.988118182 L8.93231833,4.45030826 C8.21832656,3.93535785 7.5212302,3.67729174 6.84145699,3.67729174 C4.78951927,3.67729174 3.76371081,5.23449835 3.76371081,8.34923388 L3.76371081,16.8360851 L-1.0693302e-05,16.8360851 L-1.0693302e-05,0.467258678 Z" id="Fill-1" fill="#FFFFFF" mask="url(#mask-2)"></path>
                            </g>
                            <g id="Group-6" transform="translate(9.303173, 0.094116)">
                                <mask id="mask-4" fill="white">
                                    <use xlink:href="#path-3"></use>
                                </mask>
                                <g id="Clip-5"></g>
                                <path d="M3.87046204,8.60133719 C3.87046204,10.2371884 4.30546557,11.5314942 5.17525875,12.4831802 C6.06740094,13.4472215 7.24366416,13.9284364 8.70447615,13.9284364 C10.176623,13.9284364 11.3528863,13.4525934 12.2338005,12.5003702 C13.1147147,11.5481471 13.5552787,10.2762959 13.5552787,8.68535372 C13.5552787,7.09462645 13.1147147,5.82277521 12.2338005,4.87044463 C11.3416583,3.9069405 10.1653951,3.42518843 8.70447615,3.42518843 C7.26612009,3.42518843 6.10055018,3.9069405 5.20883572,4.87044463 C4.31637274,5.83394876 3.87046204,7.07797355 3.87046204,8.60133719 M0.023332785,8.53386612 C0.023332785,6.17012231 0.865216451,4.15909752 2.54930458,2.50079174 C4.23275112,0.843130579 6.28468884,0.0132793388 8.70447615,0.0132793388 C11.1354914,0.0132793388 13.1983363,0.848395041 14.8933316,2.51787438 C16.5662987,4.18692397 17.402408,6.23759339 17.402408,8.66827107 C17.402408,11.1219405 16.5604174,13.1779818 14.8768639,14.8362876 C13.1815478,16.4833124 11.1019145,17.3066099 8.63764301,17.3066099 C6.19539976,17.3066099 4.14902256,16.4662298 2.49893913,14.7858992 C0.848641833,13.1277008 0.023332785,11.0438331 0.023332785,8.53386612" id="Fill-4" fill="#FFFFFF" mask="url(#mask-4)"></path>
                            </g>
                            <polygon id="Fill-7" fill="#FFFFFF" points="32.6827409 13.3674273 42.3675576 13.3674273 42.3675576 16.9301793 25.2226657 16.9301793 35.7772756 4.09047686 27.4639818 4.09047686 27.4639818 0.561352893 43.2205623 0.561352893"></polygon>
                            <g id="Group-11" transform="translate(42.987074, 0.094116)">
                                <mask id="mask-6" fill="white">
                                    <use xlink:href="#path-5"></use>
                                </mask>
                                <g id="Clip-10"></g>
                                <path d="M12.9980935,8.68537521 C12.9980935,7.0945405 12.5739972,5.82268926 11.7266599,4.87046612 C10.8680947,3.89568099 9.7698926,3.40866446 8.43151892,3.40866446 C7.0042839,3.40866446 5.8779584,3.94069752 5.05275629,5.00476364 C4.30550834,5.95698678 3.93209824,7.18983802 3.93209824,8.70192066 C3.93209824,10.1921934 4.30550834,11.4137636 5.05275629,12.3659868 C5.86683737,13.4075983 6.99305593,13.9284579 8.43151892,13.9284579 C9.8703027,13.9284579 11.0074284,13.4022264 11.8438585,12.3489041 C12.6131347,11.3965736 12.9980935,10.1756479 12.9980935,8.68537521 L12.9980935,8.68537521 Z M16.6110395,16.4497058 C16.6110395,17.2226149 16.5860172,17.9031273 16.5356517,18.4913504 C16.4856071,19.079681 16.4157798,19.5975322 16.3265976,20.0461934 C16.0591582,21.2784 15.5348656,22.3370942 14.7543615,23.2225983 C13.2823215,24.9251686 11.2582933,25.7768298 8.68249072,25.7768298 C6.50800776,25.7768298 4.71848367,25.1886066 3.31338378,24.0120529 C1.86369283,22.8023008 1.02726275,21.1269124 0.804307403,18.9873917 L4.58438966,18.9873917 C4.72939083,19.7940364 4.96913467,20.4155653 5.30372808,20.852838 C6.0842322,21.871995 7.2215718,22.3821107 8.71606769,22.3821107 C11.4701276,22.3821107 12.8476388,20.684805 12.8476388,17.290086 L12.8476388,15.0043421 C11.352929,16.539524 9.63023807,17.3066314 7.67903126,17.3066314 C5.45985029,17.3066314 3.64198895,16.4998793 2.2259819,14.8865901 C0.798639953,13.2507388 0.0849689777,11.2059785 0.0849689777,8.75230909 C0.0849689777,6.36600331 0.748274501,4.33843306 2.07531328,2.66884628 C3.50265523,0.898697521 5.38734971,0.0133008264 7.72918284,0.0133008264 C9.78069283,0.0133008264 11.4869161,0.780945455 12.8476388,2.31612727 L12.8476388,0.467226446 L16.6110395,0.467226446 L16.6110395,16.4497058 Z" id="Fill-9" fill="#FFFFFF" mask="url(#mask-6)"></path>
                            </g>
                            <g id="Group-14" transform="translate(61.593420, 0.094116)">
                                <mask id="mask-8" fill="white">
                                    <use xlink:href="#path-7"></use>
                                </mask>
                                <g id="Clip-13"></g>
                                <path d="M3.86566075,8.60133719 C3.86566075,10.170362 4.28387579,11.4474777 5.12030588,12.4328992 C5.97887109,13.4300314 7.06060552,13.9284364 8.36508143,13.9284364 C9.75906028,13.9284364 10.885065,13.4472215 11.7438441,12.4831802 C12.6024093,11.4864777 13.0318523,10.2205355 13.0318523,8.68535372 C13.0318523,7.15081653 12.6024093,5.88422975 11.7438441,4.88709752 C10.885065,3.9123124 9.77028825,3.42518843 8.3986584,3.42518843 C7.10476886,3.42518843 6.02335523,3.91822149 5.15356204,4.90418017 C4.29478296,5.90141983 3.86566075,7.13362645 3.86566075,8.60133719 L3.86566075,8.60133719 Z M12.797669,0.467312397 L16.5778582,0.467312397 L16.5778582,16.8360314 L12.797669,16.8360314 L12.797669,15.1220727 C11.2475679,16.5786099 9.58058907,17.3066099 7.79641163,17.3066099 C5.54376063,17.3066099 3.68184289,16.4886843 2.20980294,14.8529405 C0.748670153,13.1838909 0.0185314924,11.1001306 0.0185314924,8.60133719 C0.0185314924,6.14766777 0.748670153,4.10344463 2.20980294,2.4670562 C3.67040106,0.831849587 5.49906263,0.0132793388 7.69621539,0.0132793388 C9.59181704,0.0132793388 11.2923729,0.79811405 12.797669,2.36638678 L12.797669,0.467312397 Z" id="Fill-12" fill="#FFFFFF" mask="url(#mask-8)"></path>
                            </g>
                            <g id="Group-17" transform="translate(80.199765, 0.094116)">
                                <mask id="mask-10" fill="white">
                                    <use xlink:href="#path-9"></use>
                                </mask>
                                <g id="Clip-16"></g>
                                <path d="M0.0946998825,0.467258678 L3.85831445,0.467258678 L3.85831445,1.92970496 C4.54963643,1.20116777 5.16311116,0.70276281 5.698204,0.43352314 C6.24463173,0.153647107 6.89146957,0.0133330579 7.63861058,0.0133330579 C8.63084207,0.0133330579 9.6678785,0.338870248 10.7497199,0.988118182 L9.02692197,4.45030826 C8.31303713,3.93535785 7.61594078,3.67729174 6.93616757,3.67729174 C4.88422985,3.67729174 3.85831445,5.23449835 3.85831445,8.34923388 L3.85831445,16.8360851 L0.0946998825,16.8360851 L0.0946998825,0.467258678 Z" id="Fill-15" fill="#FFFFFF" mask="url(#mask-10)"></path>
                            </g>
                            <path d="M46.9402381,19.7862256 C48.6904108,19.9846636 48.4340924,19.9247132 48.9117622,19.8401595 C47.9331112,19.1932752 46.9405589,18.3827628 46.0745083,17.4163579 C45.4644555,16.7356306 44.9682863,15.9837793 44.473721,15.1388868 C44.4366153,16.4620934 44.0056752,17.8469694 43.6131241,18.9738868 C43.3169196,19.8241512 42.9729161,20.6272504 42.5841076,21.3803909 C43.0549337,21.2188041 43.5666082,20.990176 44.0242816,20.673019 C46.9452639,28.5847545 54.9046094,25.3186388 54.9046094,25.3186388 C48.0729796,22.8890355 46.9054848,20.2840934 46.9400242,19.7881595 L46.9402381,19.7862256 Z" id="Fill-18" fill="#47B549"></path>
                            <path d="M55.8178709,18.0086744 C55.6544772,20.9869636 54.2828474,22.4762694 51.7030882,22.4762694 C50.2086993,22.4762694 49.0712528,21.9661537 48.2907486,20.9469967 C47.9561552,20.5096165 47.7164114,19.888195 47.5715172,19.081443 L43.791328,19.081443 C44.0142833,21.2209636 44.8507134,22.8964595 46.3004043,24.1062116 C47.7056112,25.2827653 49.4950283,25.8709884 51.6695113,25.8709884 C54.2454208,25.8709884 56.269449,25.0193273 57.741382,23.3166496 C58.5218861,22.4312529 59.0461787,21.3725587 59.3136182,20.1403521 C59.4028004,19.6916909 59.4727345,19.1738397 59.5226723,18.5855091 C59.5482293,18.2877983 59.5671564,18.311005 59.5796676,17.9660215" id="Fill-20" fill="#47B549"></path>
                        </g>
                    </g>
                    <path d="M96.7686154,6 C97.3712821,6 97.8379487,5.86666667 98.1686154,5.6 C98.4992821,5.33333333 98.6646154,4.94933333 98.6646154,4.448 C98.6646154,4.07466667 98.5632821,3.76533333 98.3606154,3.52 C98.1579487,3.27466667 97.8779487,3.11733333 97.5206154,3.048 L97.628,3.074 L97.6722821,3.05855556 C97.8669487,2.98003704 98.0313932,2.87248148 98.1656154,2.73588889 L98.2606154,2.628 C98.4392821,2.40133333 98.5286154,2.12266667 98.5286154,1.792 C98.5286154,1.31733333 98.3659487,0.950666667 98.0406154,0.692 C97.7152821,0.433333333 97.2646154,0.304 96.6886154,0.304 L96.6886154,0.304 L94.4006154,0.304 L94.4006154,6 L96.7686154,6 Z M96.5846154,2.832 L95.0486154,2.832 L95.0486154,0.848 L96.5846154,0.848 C97.0219487,0.848 97.3472821,0.929333333 97.5606154,1.092 C97.7739487,1.25466667 97.8806154,1.49866667 97.8806154,1.824 C97.8806154,2.15466667 97.7726154,2.40533333 97.5566154,2.576 C97.3406154,2.74666667 97.0166154,2.832 96.5846154,2.832 L96.5846154,2.832 Z M96.7126154,5.456 L95.0486154,5.456 L95.0486154,3.384 L96.7126154,3.384 C97.1552821,3.384 97.4832821,3.472 97.6966154,3.648 C97.9099487,3.824 98.0166154,4.08533333 98.0166154,4.432 C98.0166154,4.784 97.9112821,5.04266667 97.7006154,5.208 C97.4899487,5.37333333 97.1606154,5.456 96.7126154,5.456 L96.7126154,5.456 Z M101.852308,6.056 C102.140308,6.056 102.421641,6.008 102.696308,5.912 C102.970974,5.816 103.196308,5.68533333 103.372308,5.52 L103.372308,5.52 L103.156308,5.048 C102.958974,5.208 102.752308,5.32666667 102.536308,5.404 C102.320308,5.48133333 102.094974,5.52 101.860308,5.52 C101.412308,5.52 101.072308,5.38666667 100.840308,5.12 C100.608308,4.85333333 100.492308,4.45866667 100.492308,3.936 L100.493,3.968 L103.444308,3.968 L103.444308,3.848 C103.444308,3.43733333 103.376308,3.08533333 103.240308,2.792 C103.104308,2.49866667 102.908308,2.27333333 102.652308,2.116 C102.396308,1.95866667 102.089641,1.88 101.732308,1.88 C101.358974,1.88 101.029641,1.968 100.744308,2.144 C100.458974,2.32 100.236308,2.56533333 100.076308,2.88 C99.9163077,3.19466667 99.8363077,3.56 99.8363077,3.976 C99.8363077,4.408 99.917641,4.78 100.080308,5.092 C100.242974,5.404 100.474974,5.64266667 100.776308,5.808 C101.077641,5.97333333 101.436308,6.056 101.852308,6.056 Z M102.858,3.545 L100.52,3.545 L100.538995,3.4344375 C100.580495,3.23127083 100.649662,3.0544375 100.746495,2.9039375 L100.824308,2.796 C101.045641,2.52133333 101.350974,2.384 101.740308,2.384 C102.113641,2.384 102.397641,2.50933333 102.592308,2.76 C102.731355,2.93904762 102.818022,3.17387755 102.852308,3.4644898 L102.858,3.545 Z M106.152,6.056 C106.258667,6.056 106.356,6.04933333 106.444,6.036 C106.532,6.02266667 106.621333,6.00266667 106.712,5.976 L106.712,5.976 L106.712,5.424 C106.632,5.45066667 106.56,5.46933333 106.496,5.48 C106.432,5.49066667 106.36,5.496 106.28,5.496 C106.146667,5.496 106.026667,5.47333333 105.92,5.428 C105.813333,5.38266667 105.729333,5.30133333 105.668,5.184 C105.606667,5.06666667 105.576,4.90133333 105.576,4.688 L105.576,4.688 L105.576,2.488 L106.728,2.488 L106.728,1.976 L105.576,1.976 L105.576,0.712 L104.928,0.944 L104.928,1.976 L104.144,1.976 L104.144,2.488 L104.928,2.488 L104.928,4.776 C104.928,5.14933333 105.012729,5.441 105.182188,5.651 L105.26,5.736 C105.481333,5.94933333 105.778667,6.056 106.152,6.056 Z M109.363692,6.056 C109.731692,6.056 110.043692,5.96533333 110.299692,5.784 C110.470359,5.66311111 110.604285,5.50785185 110.70147,5.31822222 L110.723,5.269 L110.723692,6 L111.363692,6 L111.363692,1.976 L110.723692,1.976 L110.723,2.668 L110.70147,2.61777778 C110.628581,2.47555556 110.535026,2.35266667 110.420803,2.24911111 L110.299692,2.152 C110.043692,1.97066667 109.731692,1.88 109.363692,1.88 C109.011692,1.88 108.701026,1.968 108.431692,2.144 C108.162359,2.32 107.953026,2.56533333 107.803692,2.88 C107.654359,3.19466667 107.579692,3.56266667 107.579692,3.984 C107.579692,4.40533333 107.653026,4.772 107.799692,5.084 C107.946359,5.396 108.154359,5.636 108.423692,5.804 C108.693026,5.972 109.006359,6.056 109.363692,6.056 Z M109.491692,5.52 C109.097026,5.52 108.789026,5.38666667 108.567692,5.12 C108.346359,4.85333333 108.235692,4.47466667 108.235692,3.984 C108.235692,3.49333333 108.346359,3.11066667 108.567692,2.836 C108.789026,2.56133333 109.097026,2.424 109.491692,2.424 C109.881026,2.424 110.183692,2.55733333 110.399692,2.824 C110.615692,3.09066667 110.723692,3.472 110.723692,3.968 C110.723692,4.464 110.617026,4.84666667 110.403692,5.116 C110.190359,5.38533333 109.886359,5.52 109.491692,5.52 Z" id="Beta" fill="#FFFFFF" fill-rule="nonzero"></path>
                </g>
            </g>
        </g>
    </g>
</svg>