<?xml version="1.0" encoding="UTF-8"?>
<svg width="27px" height="20px" viewBox="0 0 27 20" version="1.1" xmlns="http://www.w3.org/2000/svg" xmlns:xlink="http://www.w3.org/1999/xlink">
    <title>55AE26BD-DCDA-460A-9E61-CA0F0F39F089</title>
    <g id="Page-1" stroke="none" stroke-width="1" fill="none" fill-rule="evenodd">
        <g id="Seeker--Rozeeblu-Location-serach" transform="translate(-10.000000, -15.000000)" fill="#FFFFFF" fill-rule="nonzero">
            <path d="M11.0814996,15.0015444 C10.6744935,15.0226521 10.3096845,15.2591134 10.1245203,15.6218377 C9.93935618,15.984562 9.96197453,16.4184294 10.1838535,16.7599733 C10.4057326,17.1015172 10.7931554,17.2988363 11.2001541,17.2775874 L35.8446934,17.2775874 C36.2554877,17.2833916 36.637588,17.0677643 36.8446806,16.7132734 C37.0517731,16.3587825 37.0517731,15.9203493 36.8446806,15.5658584 C36.637588,15.2113675 36.2554877,14.9957402 35.8446934,15.0015444 L11.2001541,15.0015444 C11.1606294,14.9994852 11.1210242,14.9994852 11.0814996,15.0015444 Z M11.0814996,23.8686284 C10.6745436,23.8898042 10.3098085,24.1262775 10.1246865,24.488971 C9.93956439,24.8516646 9.96217981,25.2854767 10.1840137,25.6269945 C10.4058476,25.9685123 10.7931981,26.165851 11.2001541,26.1446751 L35.8446934,26.1446751 C36.2554563,26.1504303 36.6375061,25.9347918 36.8445684,25.5803205 C37.0516308,25.2258492 37.0516308,24.7874543 36.8445684,24.432983 C36.6375061,24.0785117 36.2554563,23.8628732 35.8446934,23.8686284 L11.2001541,23.8686284 C11.1606294,23.8665691 11.1210242,23.8665691 11.0814996,23.8686284 L11.0814996,23.8686284 Z M11.2001541,32.7238428 C10.7893598,32.7180385 10.4072595,32.9336658 10.2001669,33.2881567 C9.99307436,33.6426476 9.99307436,34.0810809 10.2001669,34.4355718 C10.4072595,34.7900627 10.7893598,35.0056899 11.2001541,34.9998857 L35.8446934,34.9998857 C36.2554877,35.0056899 36.637588,34.7900627 36.8446806,34.4355718 C37.0517731,34.0810809 37.0517731,33.6426476 36.8446806,33.2881567 C36.637588,32.9336658 36.2554877,32.7180385 35.8446934,32.7238428 L11.2001541,32.7238428 L11.2001541,32.7238428 Z" id="Shape"></path>
        </g>
    </g>
</svg>