<svg width="9" height="9" viewBox="0 0 9 9" fill="none" xmlns="http://www.w3.org/2000/svg">
<g clip-path="url(#clip0)">
<path d="M5.69137 2.17078L1.28965 6.57281C1.26751 6.59502 1.25152 6.62306 1.2439 6.6532L0.756016 8.61148C0.741422 8.67043 0.758745 8.73312 0.801766 8.77614C0.834317 8.80869 0.878671 8.82671 0.924039 8.82671C0.937935 8.82671 0.952149 8.825 0.965981 8.82151L2.92426 8.33356C2.95478 8.32594 2.98251 8.31002 3.00465 8.28787L7.40675 3.88616L5.69137 2.17078Z" fill="black"/>
<path d="M8.49724 1.56958L8.00726 1.0796C7.67978 0.752118 7.10902 0.752435 6.78192 1.0796L6.18172 1.6798L7.89704 3.39511L8.49724 2.79491C8.66083 2.6314 8.75093 2.41375 8.75093 2.18228C8.75093 1.9508 8.66083 1.73316 8.49724 1.56958Z" fill="black"/>
</g>
<defs>
<clipPath id="clip0">
<rect width="8" height="8" fill="white" transform="translate(0.750946 0.827148)"/>
</clipPath>
</defs>
</svg>
