<svg width="17" height="16" viewBox="0 0 17 16" fill="none" xmlns="http://www.w3.org/2000/svg">
<path d="M4.21862 12.5726C3.13793 12.5726 2.17671 11.8807 1.82772 10.8507L1.8041 10.773C1.72175 10.5003 1.68732 10.2708 1.68732 10.0413V5.43909L0.0497368 10.9054C-0.160868 11.7093 0.319067 12.5429 1.12436 12.765L11.5621 15.5602C11.6924 15.594 11.8227 15.6102 11.9509 15.6102C12.6232 15.6102 13.2375 15.164 13.4096 14.5065L14.0178 12.5726H4.21862Z" fill="#2F4BAF"/>
<path d="M6.07497 5.48497C6.81951 5.48497 7.425 4.87948 7.425 4.13494C7.425 3.3904 6.81951 2.78491 6.07497 2.78491C5.33043 2.78491 4.72495 3.3904 4.72495 4.13494C4.72495 4.87948 5.33043 5.48497 6.07497 5.48497Z" fill="#2F4BAF"/>
<path d="M14.5126 0.759888H4.38742C3.45726 0.759888 2.69989 1.51725 2.69989 2.44742V9.87258C2.69989 10.8027 3.45726 11.5601 4.38742 11.5601H14.5126C15.4428 11.5601 16.2002 10.8027 16.2002 9.87258V2.44742C16.2002 1.51725 15.4428 0.759888 14.5126 0.759888ZM4.38742 2.10992H14.5126C14.6989 2.10992 14.8501 2.26112 14.8501 2.44742V7.23935L12.7178 4.75125C12.4916 4.48596 12.1643 4.34421 11.8126 4.33611C11.4629 4.33814 11.1349 4.49339 10.9108 4.76205L8.40376 7.77126L7.58699 6.95652C7.12528 6.49481 6.37399 6.49481 5.91296 6.95652L4.04992 8.81888V2.44742C4.04992 2.26112 4.20112 2.10992 4.38742 2.10992Z" fill="#2F4BAF"/>
</svg>
