<svg width="8" height="9" viewBox="0 0 8 9" fill="none" xmlns="http://www.w3.org/2000/svg">
<path d="M4 0.0141602C1.79444 0.0141602 0 1.8086 0 4.01416C0 6.21972 1.79444 8.01416 4 8.01416C6.20556 8.01416 8 6.21972 8 4.01416C8 1.8086 6.20556 0.0141602 4 0.0141602ZM4 7.34749C3.09194 7.34749 2.26844 6.98158 1.66667 6.39064V5.84749C1.66667 5.68896 1.73764 5.58691 1.81967 5.46874C1.90414 5.34718 2 5.20932 2 5.01416C2 4.69629 1.71305 4.66407 1.55875 4.64682C1.44839 4.63444 1.34423 4.62272 1.2845 4.56299C1.23925 4.51774 1.194 4.43555 1.14616 4.34863C1.05114 4.17575 0.922344 3.94714 0.677141 3.80713C0.784938 2.06566 2.23183 0.680832 4 0.680832C4.09148 0.680832 4.18142 0.687301 4.27108 0.694566C4.25283 0.706551 4.23047 0.714691 4.2155 0.72966C4.18311 0.762051 4.16537 0.806488 4.16667 0.852379C4.16814 0.898113 4.18831 0.94141 4.2225 0.972004C4.28239 1.02522 4.29395 1.05208 4.29623 1.05208C4.29248 1.06005 4.26189 1.1123 4.09131 1.19889C3.80973 1.34163 3.48455 1.63379 3.4362 1.93783C3.41406 2.07585 3.45411 2.20394 3.54883 2.29868C3.58008 2.32993 3.62239 2.3475 3.66667 2.3475C3.89813 2.3475 4.07698 2.26189 4.25 2.17921C4.42758 2.09439 4.59538 2.01416 4.83333 2.01416C5.48747 2.01416 6 2.16064 6 2.34749C6 2.416 5.97867 2.437 5.97055 2.44482C5.88867 2.52538 5.60987 2.52018 5.36475 2.51643C5.29981 2.51529 5.23341 2.51414 5.16667 2.51414C4.94044 2.51414 4.87028 2.4811 4.78906 2.44269C4.6945 2.3981 4.58741 2.34747 4.33333 2.34747C4.05859 2.34747 3.54802 2.39711 3.21548 2.72963C2.94352 3.00144 2.97231 3.32663 2.9912 3.54164C2.99559 3.59113 3 3.638 3 3.6808C3 4.00908 3.33545 4.1808 3.66667 4.1808C4.17611 4.1808 4.61655 4.27585 4.66667 4.34747C4.66667 4.534 4.72217 4.66144 4.76677 4.76364C4.80387 4.8491 4.83333 4.91647 4.83333 5.01413C4.83333 5.08964 4.82095 5.10577 4.78759 5.14874C4.72395 5.23143 4.66666 5.32143 4.66666 5.51413C4.66666 5.86488 5.00439 6.24964 5.0428 6.29246C5.07486 6.32794 5.12011 6.34747 5.16666 6.34747C5.18048 6.34747 5.19433 6.34585 5.208 6.34227C5.30614 6.31704 6.16666 6.08022 6.16666 5.51414C6.16666 5.33674 6.22183 5.28888 6.30548 5.21629C6.38752 5.14499 6.49998 5.0475 6.49998 4.84747C6.49998 4.71385 6.73713 4.36896 6.95686 4.12596C6.98795 4.09161 7.00341 4.04572 6.99934 3.99949C6.99528 3.95327 6.97216 3.91079 6.93555 3.88246C6.80598 3.78204 6.44823 3.45505 6.32845 3.13783C6.39633 3.17332 6.48128 3.2311 6.54883 3.29864C6.60433 3.35447 6.67872 3.38116 6.76334 3.37775C6.89833 3.37005 7.05869 3.26339 7.21066 3.13036C7.28839 3.41233 7.33334 3.7078 7.33334 4.01416C7.33333 5.85221 5.83805 7.34749 4 7.34749Z" fill="black"/>
</svg>
